{
  "accessors": [
    {
      "bufferView": 2,
      "componentType": 5126,
      "count": 44517,
      "max": [
        2.023574113845825,
        7.270302772521973,
        9.513982772827148
      ],
      "min": [
        -8.547650337219238,
        -10.012540817260742,
        -7.144069194793701
      ],
      "type": "VEC3"
    },
    {
      "bufferView": 2,
      "byteOffset": 534204,
      "componentType": 5126,
      "count": 44517,
      "max": [
        0.9999985098838806,
        0.9999939799308777,
        0.999993085861206
      ],
      "min": [
        -0.9999969005584717,
        -0.9999744296073914,
        -0.9999797344207764
      ],
      "type": "VEC3"
    },
    {
      "bufferView": 1,
      "componentType": 5126,
      "count": 44517,
      "max": [
        0.9999138116836548,
        0.994885265827179
      ],
      "min": [
        2.963091537822038e-05,
        8.081644773483276e-05
      ],
      "type": "VEC2"
    },
    {
      "bufferView": 1,
      "byteOffset": 356136,
      "componentType": 5126,
      "count": 44517,
      "max": [
        0.9999138116836548,
        0.994885265827179
      ],
      "min": [
        2.963091537822038e-05,
        8.081644773483276e-05
      ],
      "type": "VEC2"
    },
    {
      "bufferView": 1,
      "byteOffset": 712272,
      "componentType": 5126,
      "count": 44517,
      "max": [
        0.9999138116836548,
        0.994885265827179
      ],
      "min": [
        2.963091537822038e-05,
        8.081644773483276e-05
      ],
      "type": "VEC2"
    },
    {
      "bufferView": 0,
      "componentType": 5125,
      "count": 249252,
      "type": "SCALAR"
    }
  ],
  "asset": {
    "extras": {
      "author": "Cucumber_Fan (https://sketchfab.com/Cucumber_Fan)",
      "license": "CC-BY-4.0 (http://creativecommons.org/licenses/by/4.0/)",
      "source": "https://sketchfab.com/3d-models/scooby-doo-4f9ef2bf98a3430aa834e3fb7a59cfec",
      "title": "Scooby Doo"
    },
    "generator": "Sketchfab-12.66.0",
    "version": "2.0"
  },
  "bufferViews": [
    {
      "buffer": 0,
      "byteLength": 997008,
      "name": "floatBufferViews",
      "target": 34963
    },
    {
      "buffer": 0,
      "byteLength": 1068408,
      "byteOffset": 997008,
      "byteStride": 8,
      "name": "floatBufferViews",
      "target": 34962
    },
    {
      "buffer": 0,
      "byteLength": 1068408,
      "byteOffset": 2065416,
      "byteStride": 12,
      "name": "floatBufferViews",
      "target": 34962
    }
  ],
  "buffers": [
    {
      "byteLength": 3133824,
      "uri": "scene.bin"
    }
  ],
  "extensionsRequired": [
    "KHR_materials_pbrSpecularGlossiness"
  ],
  "extensionsUsed": [
    "KHR_materials_pbrSpecularGlossiness"
  ],
  "images": [
    {
      "uri": "textures/material_diffuse.png"
    },
    {
      "uri": "textures/material_specularGlossiness.png"
    }
  ],
  "materials": [
    {
      "doubleSided": true,
      "extensions": {
        "KHR_materials_pbrSpecularGlossiness": {
          "diffuseFactor": [
            1.0,
            1.0,
            1.0,
            1.0
          ],
          "diffuseTexture": {
            "index": 0
          },
          "glossinessFactor": 1.0,
          "specularFactor": [
            1.0,
            1.0,
            1.0
          ],
          "specularGlossinessTexture": {
            "index": 1,
            "texCoord": 1
          }
        }
      },
      "name": "material"
    }
  ],
  "meshes": [
    {
      "name": "Object_0",
      "primitives": [
        {
          "attributes": {
            "NORMAL": 1,
            "POSITION": 0,
            "TEXCOORD_0": 2,
            "TEXCOORD_1": 3,
            "TEXCOORD_2": 4
          },
          "indices": 5,
          "material": 0,
          "mode": 4
        }
      ]
    }
  ],
  "nodes": [
    {
      "children": [
        1
      ],
      "matrix": [
        1.0,
        0.0,
        0.0,
        0.0,
        0.0,
        2.220446049250313e-16,
        -1.0,
        0.0,
        0.0,
        1.0,
        2.220446049250313e-16,
        0.0,
        0.0,
        0.0,
        0.0,
        1.0
      ],
      "name": "Sketchfab_model"
    },
    {
      "children": [
        2
      ],
      "name": "root"
    },
    {
      "children": [
        3
      ],
      "matrix": [
        1.0,
        0.0,
        0.0,
        0.0,
        0.0,
        2.220446049250313e-16,
        1.0,
        0.0,
        0.0,
        -1.0,
        2.220446049250313e-16,
        0.0,
        0.0,
        0.0,
        0.0,
        1.0
      ],
      "name": "GLTF_SceneRootNode"
    },
    {
      "children": [
        4
      ],
      "name": "root_0"
    },
    {
      "children": [
        5
      ],
      "matrix": [
        -0.02962474152445793,
        0.0,
        0.0,
        0.0,
        0.0,
        0.029624750837683678,
        0.0,
        0.0,
        0.0,
        0.0,
        -0.02962474152445793,
        0.0,
        -0.09663709998130798,
        0.04061904177069664,
        0.2911035418510437,
        1.0
      ],
      "name": "node_id3_1"
    },
    {
      "mesh": 0,
      "name": "Object_5"
    }
  ],
  "samplers": [
    {
      "magFilter": 9729,
      "minFilter": 9987,
      "wrapS": 10497,
      "wrapT": 10497
    }
  ],
  "scene": 0,
  "scenes": [
    {
      "name": "Sketchfab_Scene",
      "nodes": [
        0
      ]
    }
  ],
  "textures": [
    {
      "sampler": 0,
      "source": 0
    },
    {
      "sampler": 0,
      "source": 1
    }
  ]
}
